<?xml version="1.0" standalone="no"?>
<!DOCTYPE svg PUBLIC "-//W3C//DTD SVG 20010904//EN"
 "http://www.w3.org/TR/2001/REC-SVG-20010904/DTD/svg10.dtd">
<svg version="1.0" xmlns="http://www.w3.org/2000/svg"
 width="256.000000pt" height="256.000000pt" viewBox="0 0 256.000000 256.000000"
 preserveAspectRatio="xMidYMid meet">

<g transform="translate(0.000000,256.000000) scale(0.100000,-0.100000)"
fill="#000000" stroke="none">
<path d="M1652 2163 c-39 -19 -77 -66 -87 -105 -4 -16 -9 -28 -10 -28 -2 0
-41 9 -87 20 -180 45 -396 35 -580 -26 -86 -28 -101 -41 -96 -80 5 -48 26 -50
129 -17 195 64 402 67 592 6 l47 -15 -2 -205 -3 -206 -47 -12 c-92 -23 -165
-95 -194 -191 -19 -63 -18 -88 4 -107 16 -15 46 -17 214 -17 l195 0 63 31 c65
33 114 87 136 152 9 27 18 34 60 43 27 7 61 16 76 22 26 11 27 10 52 -56 26
-69 49 -162 61 -244 l6 -48 -956 0 -956 0 7 58 c19 159 89 332 187 462 32 41
57 84 57 95 0 29 -19 45 -51 45 -50 0 -178 -192 -239 -359 -32 -86 -60 -226
-60 -294 0 -32 -17 -69 -86 -189 -67 -115 -85 -154 -80 -173 7 -29 17 -32 151
-40 188 -11 314 -38 665 -146 417 -129 563 -154 885 -153 185 0 258 5 375 23
148 22 329 60 419 87 84 25 83 29 -75 301 -135 232 -138 239 -146 313 -12 114
-36 216 -75 313 l-36 89 21 36 c11 21 23 52 27 70 4 21 16 37 33 46 59 31 121
114 136 181 5 21 20 38 51 57 90 55 156 215 109 262 -14 14 -67 16 -437 16
-370 0 -426 -2 -455 -17z m798 -89 c0 -22 -48 -78 -81 -94 -32 -17 -59 -20
-176 -20 -152 0 -183 -9 -183 -55 0 -43 33 -55 157 -55 80 0 113 -3 113 -12 0
-21 -87 -95 -120 -101 -18 -4 -89 -7 -158 -7 -103 0 -129 -3 -144 -17 -22 -20
-23 -41 -1 -65 14 -15 32 -18 135 -18 65 0 118 -2 118 -5 0 -4 -7 -19 -15 -35
-25 -49 -69 -72 -152 -80 -41 -4 -79 -12 -85 -18 -6 -6 -14 -32 -19 -58 -11
-58 -27 -84 -75 -121 -37 -28 -40 -28 -196 -31 l-159 -4 14 29 c31 59 85 93
149 93 24 0 54 7 66 16 22 15 22 16 22 320 0 291 1 305 20 324 19 19 33 20
395 20 206 0 375 -3 375 -6z m-134 -1294 c107 -183 112 -195 92 -203 -35 -13
-254 -55 -383 -73 -83 -12 -184 -18 -325 -18 -302 0 -454 28 -880 159 -292 90
-390 113 -622 143 l-58 7 41 70 c23 39 48 80 56 93 l14 22 976 -2 976 -3 113
-195z"/>
<path d="M602 1878 c-28 -28 -3 -88 37 -88 22 0 51 30 51 53 0 38 -61 62 -88
35z"/>
</g>
</svg>
